<svg xmlns="http://www.w3.org/2000/svg" id="Layer_1" data-name="Layer 1" viewBox="233.12 923.42 1799.81 403.16">
  <defs>
    <style>
      .cls-1, .cls-2 {
        fill: #333;
        stroke-width: 0px;
      }

      .cls-2 {
        fill-rule: evenodd;
      }
    </style>
  </defs>
  <path class="cls-2" d="M796.69,997.6c0,39.74-32.22,71.96-71.96,71.96s-71.96-32.22-71.96-71.96,32.22-71.96,71.96-71.96,71.96,32.22,71.96,71.96ZM533.32,1054.02c-.2,1.15-.41,2.29-.65,3.42l.06.08-6.74,39.71c-1.73,10.19.66,20.64,6.64,29.07,5.98,8.42,15.06,14.13,25.25,15.86l47.53,8.07.11.14c15.78,3.57,30.17,11.69,41.38,23.36,11.22,11.66,18.77,26.36,21.72,42.26,2.95,15.91,1.18,32.33-5.1,47.24-6.28,14.91-16.79,27.66-30.24,36.66-13.45,9-29.23,13.87-45.41,13.99-16.18.13-32.04-4.49-45.62-13.28-13.58-8.79-24.29-21.37-30.8-36.18-6.51-14.81-8.54-31.21-5.83-47.16l7.33-43.21c1.73-10.19-.66-20.64-6.64-29.07-5.98-8.42-15.06-14.13-25.25-15.86l-39.06-6.63-.08-.11c-16.43-1.96-31.9-8.79-44.41-19.62-12.51-10.83-21.49-25.17-25.77-41.15-4.28-15.98-3.68-32.88,1.74-48.52,5.42-15.64,15.39-29.29,28.65-39.2,13.25-9.91,29.17-15.62,45.7-16.4,16.53-.78,32.91,3.42,47.04,12.05,14.12,8.63,25.33,21.29,32.19,36.35,6.85,15.06,9.04,31.83,6.27,48.15ZM807.93,1197.98c0,26.93-21.83,48.76-48.76,48.76s-48.76-21.83-48.76-48.76,21.83-48.76,48.76-48.76,48.76,21.83,48.76,48.76ZM398.68,1243.78c0,45.72-37.06,82.78-82.78,82.78s-82.78-37.06-82.78-82.78,37.06-82.78,82.78-82.78,82.78,37.06,82.78,82.78Z"/>
  <g>
    <g>
      <path class="cls-1" d="M1896.89,1207.71h29.26v41.87l59.06-41.87h47.72l-84.84,60.16,84.84,58.7h-48.64l-58.15-40.23v40.23h-29.26v-118.85Z"/>
      <path class="cls-1" d="M1746.9,1207.71h90.15c5.24,0,10.12.98,14.63,2.93,4.63,1.83,8.65,4.51,12.07,8.04,3.41,3.41,6.1,7.62,8.05,12.62,2.07,4.88,3.11,10.3,3.11,16.27,0,5.37-.79,10.3-2.38,14.81-1.58,4.39-3.78,8.29-6.58,11.7-2.68,3.41-5.91,6.22-9.69,8.41-3.66,2.19-7.68,3.72-12.07,4.57l27.79,39.5h-35.66l-27.43-38.95h-32.73v38.95h-29.26v-118.85ZM1776.16,1260.19h51.75c6.09,0,10.54-1.1,13.35-3.29,2.93-2.32,4.39-5.43,4.39-9.33s-1.46-6.76-4.39-8.96c-2.8-2.32-7.25-3.47-13.35-3.47h-51.75v25.05Z"/>
      <path class="cls-1" d="M1584.15,1258.91c0-7.68,1.22-14.63,3.66-20.85,2.44-6.34,5.91-11.76,10.42-16.27,4.51-4.51,9.87-7.98,16.09-10.42,6.34-2.44,13.35-3.66,21.03-3.66h38.4c7.68,0,14.63,1.22,20.84,3.66,6.34,2.44,11.76,5.91,16.28,10.42,4.51,4.51,7.98,9.93,10.42,16.27,2.44,6.22,3.66,13.17,3.66,20.85v16.46c0,7.68-1.22,14.69-3.66,21.03-2.44,6.22-5.91,11.58-10.42,16.09-4.51,4.51-9.94,7.98-16.28,10.42-6.21,2.44-13.16,3.66-20.84,3.66h-38.4c-7.68,0-14.69-1.22-21.03-3.66-6.22-2.44-11.58-5.91-16.09-10.42-4.51-4.51-7.99-9.87-10.42-16.09-2.44-6.34-3.66-13.35-3.66-21.03v-16.46ZM1613.41,1275.36c0,7.19,2.01,12.98,6.03,17.37,4.02,4.27,9.33,6.4,15.91,6.4h38.4c6.58,0,11.89-2.13,15.91-6.4,4.02-4.39,6.03-10.18,6.03-17.37v-16.46c0-7.19-2.01-12.92-6.03-17.19-4.02-4.39-9.33-6.58-15.91-6.58h-38.4c-6.58,0-11.89,2.19-15.91,6.58-4.02,4.27-6.03,10-6.03,17.19v16.46Z"/>
      <path class="cls-1" d="M1377.54,1207.71l35.11,91.98,33.65-91.98h31.27l35.11,91.98,33.65-91.98h31.27l-43.52,118.85h-42.42l-29.44-76.98-28.16,76.98h-42.42l-45.35-118.85h31.27Z"/>
      <path class="cls-1" d="M1338.92,1235.14h-45.71v91.43h-29.26v-91.43h-45.71v-27.43h120.68v27.43Z"/>
      <path class="cls-1" d="M1201.75,1326.56h-121.41v-118.85h121.41v27.43h-92.16v18.29h84.84v27.43h-84.84v18.29h92.16v27.43Z"/>
      <path class="cls-1" d="M926.78,1207.71h53.76l44.98,103.31v-103.31h29.26v118.85h-52.48l-46.26-106.24v106.24h-29.26v-118.85Z"/>
    </g>
    <g>
      <path class="cls-1" d="M1805.58,1096.73h149.02c9.94,0,16.75-1.5,20.45-4.51,3.93-3,5.89-7.28,5.89-12.82s-1.97-10.05-5.89-12.83c-3.69-3-10.51-4.51-20.45-4.51h-77.98c-12.94,0-24.26-1.84-33.97-5.54-9.71-3.7-17.79-8.78-24.26-15.25-6.24-6.47-10.98-13.98-14.21-22.53-3-8.78-4.51-18.14-4.51-28.08,0-20.1,6.35-36.27,19.06-48.52,12.94-12.48,32.69-18.72,59.26-18.72h145.57v51.99h-145.57c-9.93,0-16.86,1.5-20.79,4.51-3.7,2.77-5.55,7.04-5.55,12.82s1.85,9.82,5.55,12.83c3.93,3,10.86,4.51,20.79,4.51h77.98c12.94,0,24.26,1.84,33.97,5.54,9.7,3.7,17.67,8.78,23.91,15.25,6.47,6.47,11.21,14.09,14.21,22.87,3.23,8.55,4.85,17.79,4.85,27.73s-1.62,19.06-4.85,27.38c-3,8.32-7.74,15.48-14.21,21.49-6.47,5.78-14.67,10.28-24.61,13.52-9.71,3.23-21.26,4.85-34.66,4.85h-149.02v-51.99Z"/>
      <path class="cls-1" d="M1764.92,1051.67c0,14.56-2.31,27.84-6.93,39.86-4.62,11.78-11.21,21.95-19.75,30.5-8.55,8.55-18.83,15.13-30.84,19.75-11.78,4.62-24.95,6.93-39.51,6.93h-69.31c-14.56,0-27.84-2.31-39.86-6.93-11.78-4.62-21.95-11.21-30.5-19.75-8.55-8.55-15.14-18.72-19.75-30.5-4.62-12.01-6.93-25.3-6.93-39.86v-128.23h55.45v128.23c0,13.63,3.82,24.61,11.44,32.92,7.63,8.09,17.67,12.13,30.15,12.13h69.31c12.48,0,22.53-4.04,30.15-12.13,7.62-8.32,11.44-19.29,11.44-32.92v-128.23h55.45v128.23Z"/>
      <path class="cls-1" d="M1224.16,923.44h170.86c9.93,0,19.18,1.85,27.73,5.55,8.78,3.46,16.41,8.55,22.87,15.25,6.47,6.47,11.55,14.44,15.25,23.91,3.93,9.24,5.89,19.52,5.89,30.84s-1.97,21.72-5.89,31.2c-3.69,9.24-8.78,17.21-15.25,23.91-6.47,6.7-14.09,11.9-22.87,15.6-8.55,3.47-17.79,5.2-27.73,5.2h-115.41v73.82h-55.45v-225.28ZM1279.61,1022.91h98.08c11.55,0,19.99-2.08,25.3-6.24,5.54-4.39,8.32-10.28,8.32-17.68s-2.77-12.82-8.32-16.98c-5.31-4.39-13.75-6.58-25.3-6.58h-98.08v47.48Z"/>
      <path class="cls-1" d="M1026.6,923.44h73.47l99.81,225.28h-60.3l-76.25-172.25-76.25,172.25h-60.3l99.81-225.28Z"/>
    </g>
  </g>
</svg>